<svg width="92" height="73" viewBox="0 0 92 73" fill="none" xmlns="http://www.w3.org/2000/svg">
<path fill-rule="evenodd" clip-rule="evenodd" d="M19.1087 0C13.8593 0 9.97498 4.57648 10.1488 9.5397C10.3157 14.308 10.0989 20.4835 8.53807 25.5197C6.97251 30.5707 4.32478 33.7703 0 34.1811V38.8189C4.32478 39.2297 6.97251 42.4293 8.53807 47.4803C10.0989 52.5165 10.3157 58.692 10.1488 63.4603C9.97498 68.4228 13.8593 73 19.1095 73H72.8983C78.1478 73 82.0312 68.4235 81.8574 63.4603C81.6905 58.692 81.9073 52.5165 83.4682 47.4803C85.0345 42.4293 87.6752 39.2297 92 38.8189V34.1811C87.6752 33.7703 85.0345 30.5707 83.4682 25.5197C81.9073 20.4843 81.6905 14.308 81.8574 9.5397C82.0312 4.57726 78.1478 0 72.8983 0H19.1079H19.1087ZM62.3729 44.9362C62.3729 51.7702 57.2552 55.9149 48.7623 55.9149H34.3051C33.8915 55.9149 33.4949 55.7513 33.2025 55.46C32.91 55.1687 32.7458 54.7736 32.7458 54.3617V18.6383C32.7458 18.2264 32.91 17.8313 33.2025 17.54C33.4949 17.2487 33.8915 17.0851 34.3051 17.0851H48.6797C55.7614 17.0851 60.4089 20.906 60.4089 26.7724C60.4089 30.8899 57.2825 34.5764 53.2992 35.2217V35.4368C58.7217 36.0294 62.3729 39.7695 62.3729 44.9362ZM47.1859 22.0087H38.9425V33.6064H45.8854C51.2526 33.6064 54.2122 31.4537 54.2122 27.6056C54.2122 23.9999 51.6674 22.0087 47.1859 22.0087ZM38.9425 38.2085V50.9897H47.4892C53.077 50.9897 56.0374 48.7562 56.0374 44.5587C56.0374 40.3605 52.9943 38.2077 47.1297 38.2077L38.9425 38.2085Z" fill="white"/>
</svg>
